<svg width="199" height="38" viewBox="0 0 199 38" fill="none" xmlns="http://www.w3.org/2000/svg">
<path d="M31.2749 7.34279C27.4022 7.34279 21.9311 7.66682 19.1352 10.4613C17.9247 11.6718 17.3202 13.6451 17.4771 15.8787C17.4975 16.1737 17.6937 16.425 17.9756 16.5181C18.256 16.6096 18.5641 16.5239 18.7559 16.2987C20.3108 14.4691 22.2435 13.0029 24.5046 11.9406C24.6964 11.8491 24.9231 11.8418 25.1295 11.9145C25.3111 11.9798 25.4535 12.1033 25.5276 12.2618C25.6816 12.5873 25.6322 13.016 25.1207 13.2572C25.0917 13.2717 25.0655 13.2906 25.0365 13.3037C25.0263 13.3081 25.0147 13.3066 25.006 13.311C19.4346 15.9296 16.6954 20.4983 15.4514 25.1964C14.5446 19.314 12.6294 15.8511 10.8202 13.7251C9.51095 12.0279 8.22341 11.1283 7.47943 10.6198C7.34136 10.5253 6.92435 10.2405 6.7514 10.0675C6.46803 9.78417 6.46803 9.32349 6.7514 9.04013C7.03477 8.75819 7.49687 8.75819 7.81218 9.07208C7.88923 9.1404 8.01272 9.22759 8.16966 9.33221L8.29902 9.4194C9.35108 10.1401 11.31 11.4785 13.0479 14.3601C13.2034 14.6173 13.5042 14.7554 13.7963 14.7002C14.0928 14.6479 14.3252 14.4197 14.3834 14.1247C14.7627 12.1877 14.5927 9.31328 12.8649 7.58549C10.069 4.7925 4.59789 4.46846 0.726671 4.46846C0.32553 4.4684 0 4.79393 0 5.195C0 9.06765 0.324032 14.5388 3.11846 17.3347C4.28387 18.5001 6.08147 19.0233 7.86736 19.0233C9.32486 19.0233 10.7533 18.6585 11.8476 18.0264C13.3399 21.1187 14.5316 25.7383 14.5316 32.805C14.5316 33.2061 14.8571 33.5316 15.2582 33.5316C15.6592 33.5316 15.9848 33.2061 15.9848 32.805C15.9848 28.8626 16.6605 24.1311 19.173 20.2366C20.18 21.2204 21.9137 21.8439 23.8347 21.902C23.9306 21.9049 24.0251 21.9063 24.1195 21.9063C26.0711 21.9063 27.796 21.2946 28.8815 20.2076C31.6773 17.4117 31.9999 11.9405 31.9999 8.06783C32.0015 7.66682 31.6774 7.34279 31.2749 7.34279Z" fill="#00B307"/>
<path d="M55.808 25.456H46.496L44.896 30H41.088L49.056 7.728H53.28L61.248 30H57.408L55.808 25.456ZM54.784 22.48L51.168 12.144L47.52 22.48H54.784ZM79.8485 14.16C79.2725 13.0507 78.4725 12.2187 77.4485 11.664C76.4245 11.088 75.2405 10.8 73.8965 10.8C72.4245 10.8 71.1125 11.1307 69.9605 11.792C68.8085 12.4533 67.9018 13.392 67.2405 14.608C66.6005 15.824 66.2805 17.232 66.2805 18.832C66.2805 20.432 66.6005 21.8507 67.2405 23.088C67.9018 24.304 68.8085 25.2427 69.9605 25.904C71.1125 26.5653 72.4245 26.896 73.8965 26.896C75.8805 26.896 77.4912 26.3413 78.7285 25.232C79.9658 24.1227 80.7232 22.6187 81.0005 20.72H72.6485V17.808H84.9045V20.656C84.6698 22.384 84.0512 23.9733 83.0485 25.424C82.0672 26.8747 80.7765 28.0373 79.1765 28.912C77.5978 29.7653 75.8378 30.192 73.8965 30.192C71.8058 30.192 69.8965 29.712 68.1685 28.752C66.4405 27.7707 65.0645 26.416 64.0405 24.688C63.0378 22.96 62.5365 21.008 62.5365 18.832C62.5365 16.656 63.0378 14.704 64.0405 12.976C65.0645 11.248 66.4405 9.904 68.1685 8.944C69.9178 7.96266 71.8272 7.472 73.8965 7.472C76.2645 7.472 78.3658 8.05866 80.2005 9.232C82.0565 10.384 83.4005 12.0267 84.2325 14.16H79.8485ZM99.0945 30L93.9745 21.104H91.1905V30H87.5425V7.76H95.2225C96.9292 7.76 98.3692 8.05866 99.5425 8.656C100.737 9.25333 101.623 10.0533 102.199 11.056C102.796 12.0587 103.095 13.1787 103.095 14.416C103.095 15.8667 102.668 17.1893 101.815 18.384C100.983 19.5573 99.6918 20.3573 97.9425 20.784L103.447 30H99.0945ZM91.1905 18.192H95.2225C96.5878 18.192 97.6118 17.8507 98.2945 17.168C98.9985 16.4853 99.3505 15.568 99.3505 14.416C99.3505 13.264 99.0092 12.368 98.3265 11.728C97.6438 11.0667 96.6092 10.736 95.2225 10.736H91.1905V18.192ZM116.945 30.224C114.876 30.224 112.967 29.744 111.217 28.784C109.489 27.8027 108.113 26.448 107.089 24.72C106.087 22.9707 105.585 21.008 105.585 18.832C105.585 16.656 106.087 14.704 107.089 12.976C108.113 11.248 109.489 9.904 111.217 8.944C112.967 7.96266 114.876 7.472 116.945 7.472C119.036 7.472 120.945 7.96266 122.673 8.944C124.423 9.904 125.799 11.248 126.801 12.976C127.804 14.704 128.305 16.656 128.305 18.832C128.305 21.008 127.804 22.9707 126.801 24.72C125.799 26.448 124.423 27.8027 122.673 28.784C120.945 29.744 119.036 30.224 116.945 30.224ZM116.945 27.056C118.417 27.056 119.729 26.7253 120.881 26.064C122.033 25.3813 122.929 24.4213 123.569 23.184C124.231 21.9253 124.561 20.4747 124.561 18.832C124.561 17.1893 124.231 15.7493 123.569 14.512C122.929 13.2747 122.033 12.3253 120.881 11.664C119.729 11.0027 118.417 10.672 116.945 10.672C115.473 10.672 114.161 11.0027 113.009 11.664C111.857 12.3253 110.951 13.2747 110.289 14.512C109.649 15.7493 109.329 17.1893 109.329 18.832C109.329 20.4747 109.649 21.9253 110.289 23.184C110.951 24.4213 111.857 25.3813 113.009 26.064C114.161 26.7253 115.473 27.056 116.945 27.056ZM138.263 30.224C136.77 30.224 135.426 29.968 134.231 29.456C133.036 28.9227 132.098 28.176 131.415 27.216C130.732 26.256 130.391 25.136 130.391 23.856H134.295C134.38 24.816 134.754 25.6053 135.415 26.224C136.098 26.8427 137.047 27.152 138.263 27.152C139.522 27.152 140.503 26.8533 141.207 26.256C141.911 25.6373 142.263 24.848 142.263 23.888C142.263 23.1413 142.039 22.5333 141.591 22.064C141.164 21.5947 140.62 21.232 139.959 20.976C139.319 20.72 138.423 20.4427 137.271 20.144C135.82 19.76 134.636 19.376 133.719 18.992C132.823 18.5867 132.055 17.968 131.415 17.136C130.775 16.304 130.455 15.1947 130.455 13.808C130.455 12.528 130.775 11.408 131.415 10.448C132.055 9.488 132.951 8.752 134.103 8.24C135.255 7.728 136.588 7.472 138.103 7.472C140.258 7.472 142.018 8.016 143.383 9.104C144.77 10.1707 145.538 11.6427 145.687 13.52H141.655C141.591 12.7093 141.207 12.016 140.503 11.44C139.799 10.864 138.871 10.576 137.719 10.576C136.674 10.576 135.82 10.8427 135.159 11.376C134.498 11.9093 134.167 12.6773 134.167 13.68C134.167 14.3627 134.37 14.928 134.775 15.376C135.202 15.8027 135.735 16.144 136.375 16.4C137.015 16.656 137.89 16.9333 138.999 17.232C140.471 17.6373 141.666 18.0427 142.583 18.448C143.522 18.8533 144.311 19.4827 144.951 20.336C145.612 21.168 145.943 22.288 145.943 23.696C145.943 24.8267 145.634 25.8933 145.015 26.896C144.418 27.8987 143.532 28.7093 142.359 29.328C141.207 29.9253 139.842 30.224 138.263 30.224ZM162.695 25.456H153.383L151.783 30H147.975L155.943 7.728H160.167L168.135 30H164.295L162.695 25.456ZM161.671 22.48L158.055 12.144L154.407 22.48H161.671ZM174.288 27.056H181.808V30H170.64V7.76H174.288V27.056ZM187.547 10.704V17.232H195.227V20.208H187.547V27.024H196.187V30H183.899V7.728H196.187V10.704H187.547Z" fill="#002603"/>
</svg>
