<svg width="354" height="290" viewBox="0 0 354 290" fill="none" xmlns="http://www.w3.org/2000/svg">
<path d="M345.979 28.6808C303.137 28.6808 242.613 31.9141 211.683 59.7976C198.292 71.8764 191.605 91.567 193.341 113.854C193.566 116.798 195.736 119.306 198.855 120.234C201.957 121.148 205.365 120.292 207.487 118.045C224.688 99.7892 246.069 85.1589 271.082 74.5591C273.204 73.6456 275.712 73.5729 277.995 74.2981C280.004 74.9506 281.579 76.1829 282.399 77.7638C284.103 81.0121 283.557 85.2894 277.898 87.6961C277.576 87.8409 277.287 88.0299 276.966 88.1604C276.854 88.2039 276.725 88.1896 276.629 88.2331C214.995 114.362 184.693 159.95 170.931 206.829C160.9 148.133 139.713 113.579 119.699 92.3656C105.215 75.4298 90.9714 66.4538 82.7412 61.3793C81.2138 60.4365 76.6006 57.5948 74.6874 55.869C71.5526 53.0415 71.5526 48.4448 74.6874 45.6173C77.8221 42.8041 82.9341 42.8041 86.4223 45.9361C87.2746 46.6178 88.6407 47.4878 90.3769 48.5318L91.8079 49.4018C103.446 56.5936 125.117 69.9481 144.343 98.7017C146.063 101.268 149.391 102.646 152.622 102.095C155.901 101.573 158.473 99.2964 159.117 96.3526C163.312 77.0243 161.431 48.3429 142.318 31.1026C111.389 3.23328 50.8641 1.06649e-07 8.03879 1.06649e-07C3.60118 -0.000679582 0 3.24755 0 7.24956C0 45.8919 3.5846 100.484 34.4979 128.383C47.3903 140.012 67.2763 145.232 87.0327 145.232C103.156 145.232 118.959 141.592 131.064 135.285C147.573 166.14 160.755 212.236 160.755 282.75C160.755 286.752 164.357 290 168.794 290C173.23 290 176.832 286.752 176.832 282.75C176.832 243.411 184.307 196.199 212.101 157.339C223.242 167.156 242.42 173.376 263.671 173.956C264.732 173.985 265.777 174 266.822 174C288.412 174 307.493 167.895 319.501 157.049C350.43 129.151 353.999 74.5584 353.999 35.9154C354.017 31.9141 350.431 28.6808 345.979 28.6808Z" fill="#00B307"/>
</svg>
